<svg width="84" height="32" viewBox="0 0 84 32" fill="none" xmlns="http://www.w3.org/2000/svg">
<g clip-path="url(#clip0_868_465)">
<path d="M18.9999 23H11V8H19L18.9999 23Z" fill="#FF5F00"/>
<path d="M11.8409 15.5C11.8409 12.4699 13.2718 9.77068 15.4998 8.03119C13.8133 6.71254 11.7273 5.99686 9.57953 6.00001C4.28877 6.00001 0 10.2532 0 15.5C0 20.7468 4.28877 25 9.57953 25C11.7274 25.0032 13.8134 24.2875 15.5 22.9688C13.2721 21.2296 11.8409 18.5302 11.8409 15.5Z" fill="#EB001B"/>
<path d="M30.5 15.5C30.5 20.7468 26.2114 25 20.9209 25C18.773 25.0031 16.6868 24.2875 15 22.9688C17.2286 21.2293 18.6593 18.5302 18.6593 15.5C18.6593 12.4698 17.2286 9.77068 15 8.03119C16.6868 6.71258 18.7729 5.99692 20.9208 6.00001C26.2113 6.00001 30.4998 10.2532 30.4998 15.5" fill="#F79E1B"/>
</g>
<path d="M54.0426 22.3187L56.0955 9.79006H59.3791L57.3247 22.3187H54.0426ZM69.1879 10.0601C68.5375 9.80632 67.518 9.53394 66.245 9.53394C63.0004 9.53394 60.715 11.2332 60.6954 13.6686C60.6772 15.4688 62.3271 16.4732 63.5726 17.0724C64.8508 17.6867 65.2804 18.0783 65.2743 18.6265C65.2661 19.4664 64.2536 19.8499 63.3097 19.8499C61.9956 19.8499 61.2973 19.66 60.2189 19.1924L59.7957 18.9933L59.3349 21.7979C60.1019 22.1478 61.5201 22.4507 62.9927 22.4664C66.4444 22.4664 68.6851 20.7865 68.7106 18.1858C68.7228 16.7605 67.8481 15.676 65.9536 14.7817C64.8059 14.2022 64.103 13.8154 64.1105 13.2285C64.1105 12.7078 64.7054 12.1509 65.9911 12.1509C67.0647 12.1336 67.8426 12.3771 68.4487 12.6309L68.7429 12.7755L69.1879 10.0601ZM77.6377 9.78987H75.1005C74.3145 9.78987 73.7262 10.013 73.3811 10.8288L68.5045 22.3104H71.9525C71.9525 22.3104 72.5162 20.7667 72.6437 20.4277C73.0205 20.4277 76.3701 20.4331 76.849 20.4331C76.9472 20.8717 77.2485 22.3104 77.2485 22.3104H80.2954L77.6377 9.78949V9.78987ZM73.6121 17.8801C73.8837 17.1583 74.9204 14.3778 74.9204 14.3778C74.901 14.4111 75.19 13.6524 75.3557 13.182L75.5776 14.2622C75.5776 14.2622 76.2063 17.2528 76.3378 17.8799H73.6121V17.8801ZM51.2551 9.78987L48.0404 18.3339L47.698 16.5976C47.0994 14.5961 45.2349 12.4276 43.1504 11.3419L46.0899 22.2987L49.5641 22.2947L54.7335 9.78974L51.2551 9.78968" fill="#0E4595"/>
<path d="M45.0409 9.78955H39.7461L39.7041 10.0502C43.8234 11.0873 46.549 13.5935 47.6807 16.6051L46.5294 10.8477C46.3307 10.0543 45.7542 9.81752 45.041 9.78987" fill="#F2AE14"/>
<defs>
<clipPath id="clip0_868_465">
<rect width="31" height="19" fill="white" transform="translate(0 6)"/>
</clipPath>
</defs>
</svg>
