<svg width="72" height="40" viewBox="0 0 72 40" fill="none" xmlns="http://www.w3.org/2000/svg">
<path d="M15.2128 15.77C15.4791 16.5687 15.5974 17.6929 15.5974 19.0833V25H20.6857V20.4737C20.6857 16.3913 22.5791 13.5512 25.3303 13.5512C28.0224 13.5512 29.0874 14.9121 29.0874 19.0833V25H34.1757V18.5804C34.1757 11.7762 32.4007 9.79417 28.1111 9.735C23.6441 9.735 21.4549 11.8354 20.7449 16.3025H20.5082C20.0941 11.3325 18.3782 9.79417 14.6211 9.735C10.1541 9.735 7.96489 11.8354 7.25489 16.3025H7.01823L7.6099 10.2083H2.10739V25H7.19573V20.4737C7.19573 16.3913 9.08906 13.5512 11.8403 13.5512C13.6449 13.5512 14.7099 14.2021 15.2128 15.77Z" fill="#333333"/>
<path d="M4.14577 31.4143C4.70489 31.29 5.21432 31.2279 5.67404 31.2279C6.65562 31.2279 7.14019 31.5261 7.14019 32.1846C5.52494 32.2964 4.24517 32.5201 3.30087 32.8307C2.34414 33.1538 1.87199 33.6756 1.87199 34.4087C1.87199 35.0424 2.10807 35.4772 2.56779 35.7009C3.02752 35.937 3.56179 36.0488 4.18304 36.0488C6.05922 36.0488 6.99109 35.353 7.38869 33.7502H7.50052L7.22717 35.85H9.27729V32.3461C9.27729 30.4078 8.24602 29.4387 6.17104 29.4387C5.11492 29.4387 3.73574 29.712 2.65477 30.1096V31.8864C3.08964 31.7 3.58664 31.5385 4.14577 31.4143ZM5.12734 34.5826C4.49367 34.5826 4.08364 34.3714 4.08364 34.0235C4.08364 33.4147 5.18947 33.2532 7.12777 33.1165C7.14019 33.5886 6.94139 33.949 6.54379 34.1975C6.13377 34.4584 5.66162 34.5826 5.12734 34.5826ZM14.3408 34.359C13.0113 34.359 12.2161 33.7253 12.2161 32.7437C12.2161 31.7622 12.9616 31.1285 14.2538 31.1285C15.3099 31.1285 16.1672 31.4018 17.0246 31.8988V30.0848C15.9933 29.6251 15.2105 29.4387 14.1171 29.4387C11.7315 29.4387 10.1535 30.7557 10.1535 32.7437C10.1535 34.7193 11.8309 36.0488 14.1047 36.0488C14.6887 36.0488 15.1857 35.9991 15.5957 35.8997C16.0057 35.8003 16.4903 35.6263 17.0246 35.3903V33.6135C16.2418 34.1105 15.4342 34.359 14.3408 34.359ZM21.0841 31.4018C21.3823 31.1658 21.7177 31.0415 22.1029 31.0415C23.2336 31.0415 23.6809 31.6131 23.6809 33.365V35.85H25.818V33.1538C25.818 30.296 25.0725 29.4635 23.2709 29.4387C21.3947 29.4387 20.4752 30.3209 20.177 32.197H20.0776L20.3261 27.1525H18.0151V35.85H20.1522V33.949C20.1522 32.8183 20.4877 31.8988 21.0841 31.4018ZM32.6333 29.8487C32.0369 29.5754 31.3411 29.4387 30.5583 29.4387C28.1976 29.4387 26.6196 30.7682 26.6196 32.7437C26.6196 34.7193 28.1976 36.0488 30.5583 36.0488C32.9191 36.0488 34.497 34.7193 34.497 32.7437C34.497 31.4391 33.8137 30.3954 32.6333 29.8487ZM30.5583 34.359C29.4028 34.359 28.6324 33.7005 28.6324 32.7437C28.6324 31.7622 29.4028 31.1285 30.5583 31.1285C31.7138 31.1285 32.4842 31.7622 32.4842 32.7437C32.4842 33.7005 31.7138 34.359 30.5583 34.359Z" fill="#333333"/>
<path d="M50.7128 15.77C50.9791 16.5687 51.0974 17.6929 51.0974 19.0833V25H56.1857V20.4737C56.1857 16.3913 58.0791 13.5512 60.8303 13.5512C63.5224 13.5512 64.5874 14.9121 64.5874 19.0833V25H69.6757V18.5804C69.6757 11.7762 67.9007 9.79417 63.6111 9.735C59.1441 9.735 56.9549 11.8354 56.2449 16.3025H56.0082C55.5941 11.3325 53.8782 9.79417 50.1211 9.735C45.6541 9.735 43.4649 11.8354 42.7549 16.3025H42.5182L43.1099 10.2083H37.6074V25H42.6957V20.4737C42.6957 16.3913 44.5891 13.5512 47.3403 13.5512C49.1449 13.5512 50.2099 14.2021 50.7128 15.77Z" fill="#333333"/>
<path d="M40.9064 31.4143C41.4655 31.29 41.975 31.2279 42.4347 31.2279C43.4163 31.2279 43.9008 31.5261 43.9008 32.1846C42.2856 32.2964 41.0058 32.5201 40.0615 32.8307C39.1048 33.1538 38.6326 33.6756 38.6326 34.4087C38.6326 35.0424 38.8687 35.4772 39.3284 35.7009C39.7882 35.937 40.3224 36.0488 40.9437 36.0488C42.8199 36.0488 43.7517 35.353 44.1493 33.7502H44.2612L43.9878 35.85H46.0379V32.3461C46.0379 30.4078 45.0067 29.4387 42.9317 29.4387C41.8756 29.4387 40.4964 29.712 39.4154 30.1096V31.8864C39.8503 31.7 40.3473 31.5385 40.9064 31.4143ZM41.888 34.5826C41.2543 34.5826 40.8443 34.3714 40.8443 34.0235C40.8443 33.4147 41.9501 33.2532 43.8884 33.1165C43.9008 33.5886 43.702 33.949 43.3044 34.1975C42.8944 34.4584 42.4223 34.5826 41.888 34.5826ZM49.6104 32.2219C50.0701 31.5137 51.0269 31.2527 52.7167 31.2527V29.4387C50.5796 29.4387 49.6353 30.1593 49.2998 31.9485H49.1755L49.424 29.6375H47.113V35.85H49.2501V33.7626C49.2501 33.1041 49.3743 32.5822 49.6104 32.2219ZM54.521 31.4143C55.0801 31.29 55.5896 31.2279 56.0493 31.2279C57.0309 31.2279 57.5154 31.5261 57.5154 32.1846C55.9002 32.2964 54.6204 32.5201 53.6761 32.8307C52.7194 33.1538 52.2472 33.6756 52.2472 34.4087C52.2472 35.0424 52.4833 35.4772 52.943 35.7009C53.4028 35.937 53.937 36.0488 54.5583 36.0488C56.4345 36.0488 57.3663 35.353 57.7639 33.7502H57.8758L57.6024 35.85H59.6525V32.3461C59.6525 30.4078 58.6213 29.4387 56.5463 29.4387C55.4902 29.4387 54.111 29.712 53.03 30.1096V31.8864C53.4649 31.7 53.9619 31.5385 54.521 31.4143ZM55.5026 34.5826C54.8689 34.5826 54.4589 34.3714 54.4589 34.0235C54.4589 33.4147 55.5647 33.2532 57.503 33.1165C57.5154 33.5886 57.3166 33.949 56.919 34.1975C56.509 34.4584 56.0369 34.5826 55.5026 34.5826Z" fill="#333333"/>
<ellipse cx="65.7876" cy="32.5417" rx="4.4375" ry="3.55" fill="#FFDA03"/>
</svg>
