<svg width="60" height="67" viewBox="0 0 60 67" fill="none" xmlns="http://www.w3.org/2000/svg">
<path d="M25.2893 27.4C25.7393 28.75 25.9393 30.65 25.9393 33V43H34.5393V35.35C34.5393 28.45 37.7393 23.65 42.3893 23.65C46.9393 23.65 48.7393 25.95 48.7393 33V43H57.3393V32.15C57.3393 20.65 54.3393 17.3 47.0893 17.2C39.5393 17.2 35.8393 20.75 34.6393 28.3H34.2393C33.5393 19.9 30.6393 17.3 24.2893 17.2C16.7393 17.2 13.0393 20.75 11.8393 28.3H11.4393L12.4393 18H3.13926V43H11.7393V35.35C11.7393 28.45 14.9393 23.65 19.5893 23.65C22.6393 23.65 24.4393 24.75 25.2893 27.4Z" fill="#163358"/>
<path d="M7.01121 52.503C7.95621 52.293 8.81721 52.188 9.59421 52.188C11.2532 52.188 12.0722 52.692 12.0722 53.805C9.34221 53.994 7.17921 54.372 5.58321 54.897C3.96621 55.443 3.16821 56.325 3.16821 57.564C3.16821 58.635 3.56721 59.37 4.34421 59.748C5.12121 60.147 6.02421 60.336 7.07421 60.336C10.2452 60.336 11.8202 59.16 12.4922 56.451H12.6812L12.2192 60H15.6842V54.078C15.6842 50.802 13.9412 49.164 10.4342 49.164C8.64921 49.164 6.31821 49.626 4.49121 50.298V53.301C5.22621 52.986 6.06621 52.713 7.01121 52.503ZM8.67021 57.858C7.59921 57.858 6.90621 57.501 6.90621 56.913C6.90621 55.884 8.77521 55.611 12.0512 55.38C12.0722 56.178 11.7362 56.787 11.0642 57.207C10.3712 57.648 9.57321 57.858 8.67021 57.858ZM21.7222 53.868C22.4992 52.671 24.1162 52.23 26.9722 52.23V49.164C23.3602 49.164 21.7642 50.382 21.1972 53.406H20.9872L21.4072 49.5H17.5012V60H21.1132V56.472C21.1132 55.359 21.3232 54.477 21.7222 53.868ZM30.0218 52.503C30.9668 52.293 31.8278 52.188 32.6048 52.188C34.2638 52.188 35.0828 52.692 35.0828 53.805C32.3528 53.994 30.1898 54.372 28.5938 54.897C26.9768 55.443 26.1788 56.325 26.1788 57.564C26.1788 58.635 26.5778 59.37 27.3548 59.748C28.1318 60.147 29.0348 60.336 30.0848 60.336C33.2558 60.336 34.8308 59.16 35.5028 56.451H35.6918L35.2298 60H38.6948V54.078C38.6948 50.802 36.9518 49.164 33.4448 49.164C31.6598 49.164 29.3288 49.626 27.5018 50.298V53.301C28.2368 52.986 29.0768 52.713 30.0218 52.503ZM31.6808 57.858C30.6098 57.858 29.9168 57.501 29.9168 56.913C29.9168 55.884 31.7858 55.611 35.0618 55.38C35.0828 56.178 34.7468 56.787 34.0748 57.207C33.3818 57.648 32.5838 57.858 31.6808 57.858Z" fill="#163358"/>
</svg>
